<?xml version="1.0" encoding="UTF-8" standalone="no"?>
<!DOCTYPE svg PUBLIC "-//W3C//DTD SVG 1.1//EN" "http://www.w3.org/Graphics/SVG/1.1/DTD/svg11.dtd">
<svg width="100%" height="100%" viewBox="0 0 1573 561" version="1.1" xmlns="http://www.w3.org/2000/svg" xmlns:xlink="http://www.w3.org/1999/xlink" xml:space="preserve" xmlns:serif="http://www.serif.com/" style="fill-rule:evenodd;clip-rule:evenodd;stroke-linejoin:round;stroke-miterlimit:2;">
    <g id="Artboard1" transform="matrix(0.993769,0,0,1,-75.8766,0)">
        <rect x="76.352" y="0" width="1582.39" height="560.209" style="fill:none;"/>
        <g transform="matrix(-2.30403,-2.80403e-16,2.82162e-16,-2.28967,244.913,1705.97)">
            <g id="_-path5389-8-8" serif:id=" path5389-8-8">
                <path id="_-path5389-8-81" serif:id=" path5389-8-8" d="M13.198,540.346C13.198,540.346 -14.168,512.139 -61.931,512.139C-110.865,512.139 -140.546,546.114 -140.546,546.114C-140.546,546.114 -131.703,602.344 -110.865,624.588C-86.377,543.516 13.198,540.346 13.198,540.346Z" style="fill:rgb(0,0,12);"/>
            </g>
        </g>
        <g transform="matrix(14.0614,0,0,14.4025,-815.036,-8284.56)">
            <g transform="matrix(22.7587,0,0,22.7587,102.743,594.969)">
                <path d="M0.098,0.02L0.098,-0.713L0.149,-0.737L0.334,-0.737C0.384,-0.737 0.429,-0.729 0.47,-0.711C0.544,-0.681 0.581,-0.636 0.581,-0.576L0.581,-0.41C0.581,-0.351 0.544,-0.306 0.47,-0.275C0.429,-0.258 0.384,-0.249 0.334,-0.249L0.195,-0.249L0.195,-0.024L0.103,0.02L0.098,0.02ZM0.195,-0.337L0.334,-0.337C0.367,-0.337 0.397,-0.342 0.424,-0.353C0.464,-0.369 0.483,-0.388 0.483,-0.41L0.483,-0.576C0.483,-0.599 0.464,-0.618 0.424,-0.633C0.397,-0.644 0.367,-0.649 0.334,-0.649L0.195,-0.649L0.195,-0.337Z" style="fill:rgb(9,11,21);fill-rule:nonzero;"/>
            </g>
            <g transform="matrix(22.7587,0,0,22.7587,117.634,594.969)">
                <path d="M0.098,0L0.098,-0.713L0.19,-0.757L0.195,-0.757L0.195,-0.089L0.53,-0.089L0.53,-0.084L0.49,0L0.098,0Z" style="fill:rgb(9,11,21);fill-rule:nonzero;"/>
            </g>
            <g transform="matrix(22.7587,0,0,22.7587,128.413,594.969)">
                <path d="M0.098,0.02L0.098,-0.586C0.098,-0.646 0.135,-0.691 0.208,-0.721C0.25,-0.738 0.295,-0.747 0.344,-0.747C0.393,-0.747 0.439,-0.738 0.48,-0.721C0.554,-0.691 0.591,-0.646 0.591,-0.586L0.591,-0.024L0.498,0.02L0.493,0.02L0.493,-0.324L0.195,-0.324L0.195,-0.024L0.103,0.02L0.098,0.02ZM0.195,-0.413L0.493,-0.413L0.493,-0.586C0.493,-0.608 0.473,-0.627 0.434,-0.643C0.407,-0.654 0.377,-0.659 0.344,-0.659C0.312,-0.659 0.282,-0.654 0.254,-0.643C0.215,-0.627 0.195,-0.608 0.195,-0.586L0.195,-0.413Z" style="fill:rgb(9,11,21);fill-rule:nonzero;"/>
            </g>
            <g transform="matrix(22.7587,0,0,22.7587,144.082,594.969)">
                <path d="M0.098,0.02L0.098,-0.586C0.098,-0.646 0.135,-0.691 0.208,-0.721C0.25,-0.738 0.295,-0.747 0.344,-0.747C0.393,-0.747 0.439,-0.738 0.48,-0.721C0.554,-0.691 0.591,-0.646 0.591,-0.586L0.591,-0.024L0.498,0.02L0.493,0.02L0.493,-0.586C0.493,-0.608 0.473,-0.627 0.434,-0.643C0.407,-0.654 0.377,-0.659 0.344,-0.659C0.312,-0.659 0.282,-0.654 0.254,-0.643C0.215,-0.627 0.195,-0.608 0.195,-0.586L0.195,-0.024L0.103,0.02L0.098,0.02Z" style="fill:rgb(9,11,21);fill-rule:nonzero;"/>
            </g>
            <g transform="matrix(22.7587,0,0,22.7587,159.751,594.969)">
                <path d="M0.098,0L0.098,-0.713L0.149,-0.737L0.459,-0.737L0.459,-0.732L0.419,-0.648L0.195,-0.648L0.195,-0.413L0.459,-0.413L0.459,-0.408L0.419,-0.324L0.195,-0.324L0.195,-0.089L0.541,-0.089L0.541,-0.084L0.501,0L0.098,0Z" style="fill:rgb(9,11,21);fill-rule:nonzero;"/>
            </g>
        </g>
        <g transform="matrix(1.41081e-16,2.28967,-2.30403,1.40202e-16,1821.14,417.99)">
            <g id="_-path5389-8-82" serif:id=" path5389-8-8">
                <path id="_-path5389-8-83" serif:id=" path5389-8-8" d="M13.198,540.346C13.198,540.346 -14.168,512.139 -61.931,512.139C-110.865,512.139 -140.546,546.114 -140.546,546.114C-140.546,546.114 -131.703,602.344 -110.865,624.588C-86.377,543.516 13.198,540.346 13.198,540.346Z" style="fill:rgb(0,0,12);"/>
            </g>
        </g>
        <g transform="matrix(2.30403,-1.84345e-32,1.85501e-32,2.28967,524.766,-1148.28)">
            <g id="_-path5389-8-84" serif:id=" path5389-8-8">
                <path id="_-path5389-8-85" serif:id=" path5389-8-8" d="M13.198,540.346C13.198,540.346 -14.168,512.139 -61.931,512.139C-110.865,512.139 -140.546,546.114 -140.546,546.114C-140.546,546.114 -131.703,602.344 -110.865,624.588C-86.377,543.516 13.198,540.346 13.198,540.346Z" style="fill:rgb(0,0,12);"/>
            </g>
        </g>
        <g transform="matrix(1.41081e-16,-2.28967,2.30403,1.40202e-16,-1050.68,139.693)">
            <g id="_-path5389-8-86" serif:id=" path5389-8-8">
                <path id="_-path5389-8-87" serif:id=" path5389-8-8" d="M13.198,540.346C13.198,540.346 -14.168,512.139 -61.931,512.139C-110.865,512.139 -140.546,546.114 -140.546,546.114C-140.546,546.114 -131.703,602.344 -110.865,624.588C-86.377,543.516 13.198,540.346 13.198,540.346Z" style="fill:rgb(0,0,12);"/>
            </g>
        </g>
        <g transform="matrix(1.11767,0,0,1.01269,24.4202,230.82)">
            <text x="561.252px" y="278.068px" style="font-family:'Raleway-Light', 'Raleway', sans-serif;font-weight:300;font-size:235.365px;fill:rgb(0,0,12);">S<tspan x="702.471px " y="278.068px ">T</tspan>UDIO</text>
        </g>
    </g>
    <g id="_-path5389-8-88" serif:id=" path5389-8-8">
    </g>
    <g id="_-path5389-8-89" serif:id=" path5389-8-8">
    </g>
    <g id="_-path5389-8-810" serif:id=" path5389-8-8">
    </g>
    <g id="_-path5389-8-811" serif:id=" path5389-8-8">
    </g>
</svg>
